<svg xmlns="http://www.w3.org/2000/svg" width="477" height="488" viewBox="0 0 477 488">
  <metadata><?xpacket begin="﻿" id="W5M0MpCehiHzreSzNTczkc9d"?>
<x:xmpmeta xmlns:x="adobe:ns:meta/" x:xmptk="Adobe XMP Core 5.6-c142 79.160924, 2017/07/13-01:06:39        ">
   <rdf:RDF xmlns:rdf="http://www.w3.org/1999/02/22-rdf-syntax-ns#">
      <rdf:Description rdf:about=""/>
   </rdf:RDF>
</x:xmpmeta>
                                                                                                    
                                                                                                    
                                                                                                    
                                                                                                    
                                                                                                    
                                                                                                    
                                                                                                    
                                                                                                    
                                                                                                    
                                                                                                    
                                                                                                    
                                                                                                    
                                                                                                    
                                                                                                    
                                                                                                    
                                                                                                    
                                                                                                    
                                                                                                    
                                                                                                    
                                                                                                    
                           
<?xpacket end="w"?></metadata>
<defs>
    <style>
      .cls-1 {
        fill-rule: evenodd;
      }
    </style>
  </defs>
  <path id="Forma_1" data-name="Forma 1" class="cls-1" d="M172.323,269.226a11.067,11.067,0,0,0-11.072-11.065H122.613a11.067,11.067,0,0,0-11.067,11.065v38.648a11.071,11.071,0,0,0,11.067,11.077h38.638a11.071,11.071,0,0,0,11.072-11.077V269.226h0Zm96.563,0a11.065,11.065,0,0,0-11.061-11.065H219.181a11.067,11.067,0,0,0-11.066,11.065v38.648a11.07,11.07,0,0,0,11.066,11.077h38.644a11.069,11.069,0,0,0,11.061-11.077V269.226Zm96.567,0a11.067,11.067,0,0,0-11.066-11.065H315.749a11.068,11.068,0,0,0-11.073,11.065v38.648a11.072,11.072,0,0,0,11.073,11.077h38.638a11.07,11.07,0,0,0,11.066-11.077V269.226Zm-193.13,96.61a11.065,11.065,0,0,0-11.072-11.071H122.613a11.065,11.065,0,0,0-11.067,11.071v38.642a11.069,11.069,0,0,0,11.067,11.071h38.638a11.07,11.07,0,0,0,11.072-11.071V365.836h0Zm96.563,0a11.064,11.064,0,0,0-11.061-11.071H219.181a11.065,11.065,0,0,0-11.066,11.071v38.642a11.068,11.068,0,0,0,11.066,11.071h38.644a11.068,11.068,0,0,0,11.061-11.071V365.836Zm96.567,0a11.064,11.064,0,0,0-11.061-11.071H315.749a11.066,11.066,0,0,0-11.073,11.071v38.642a11.07,11.07,0,0,0,11.073,11.071h38.643a11.068,11.068,0,0,0,11.061-11.071V365.836h0Zm69.09-311.5v59.031a48.206,48.206,0,0,1-48.305,48.184H355.766c-26.671,0-48.594-21.5-48.594-48.184V54.125H169.827v59.243c0,26.682-21.923,48.184-48.588,48.184H90.761a48.2,48.2,0,0,1-48.3-48.184V54.337A43.933,43.933,0,0,0,0,98.046V444a43.953,43.953,0,0,0,43.725,44H433.276C457.39,488,477,468.118,477,444V98.046A43.932,43.932,0,0,0,434.543,54.337ZM420.39,422.457a18.91,18.91,0,0,1-18.9,18.911H74.681a18.909,18.909,0,0,1-18.9-18.911v-178.7a18.909,18.909,0,0,1,18.9-18.915H401.486a18.91,18.91,0,0,1,18.9,18.915v178.7h0ZM90.654,129.9H120.8a16.561,16.561,0,0,0,16.567-16.562V16.568A16.566,16.566,0,0,0,120.8,0H90.654A16.565,16.565,0,0,0,74.087,16.568v96.775A16.56,16.56,0,0,0,90.654,129.9Zm264.724,0H385.52a16.559,16.559,0,0,0,16.56-16.562V16.568A16.564,16.564,0,0,0,385.52,0H355.378a16.566,16.566,0,0,0-16.565,16.568v96.775A16.561,16.561,0,0,0,355.378,129.9Z"/>
</svg>
